<?xml version="1.0" encoding="UTF-8"?>
<!--Generator: Apple Native CoreSVG 341-->
<!DOCTYPE svg
PUBLIC "-//W3C//DTD SVG 1.1//EN"
       "http://www.w3.org/Graphics/SVG/1.1/DTD/svg11.dtd">
<svg version="1.1" xmlns="http://www.w3.org/2000/svg" xmlns:xlink="http://www.w3.org/1999/xlink" viewBox="0 0 960.625 805.312">
 <g>
  <path d="M960.625 266.562C960.625 432.812 726.25 439.375 726.25 510C726.25 560 794.688 575.312 794.688 653.438C794.688 739.062 682.812 797.188 516.562 797.188C208.438 797.188 0 639.688 0 405.625C0 162.5 220 0 546.562 0C794.375 0 960.625 105.938 960.625 266.562ZM400.625 540.312C400.625 599.062 448.438 647.188 506.875 647.188C565.938 647.188 613.75 599.062 613.75 540.312C613.75 481.562 565.938 433.75 506.875 433.75C448.438 433.75 400.625 481.562 400.625 540.312ZM124.062 386.875C124.062 422.188 153.125 451.562 188.125 451.562C223.438 451.562 252.188 422.188 252.188 386.875C252.188 351.25 223.75 323.125 188.125 323.125C154.062 323.125 124.062 352.5 124.062 386.875ZM255.938 228.438C255.938 275.625 293.438 312.188 340.312 312.188C386.25 312.188 423.75 275.625 423.75 228.438C423.75 182.5 386.25 145.938 340.312 145.938C293.438 145.938 255.938 182.5 255.938 228.438ZM688.438 230.312C688.438 259.688 712.188 283.125 741.875 283.125C770.625 283.125 793.75 260 793.75 230.312C793.75 201.562 770.312 177.812 741.875 177.812C712.5 177.812 688.438 201.562 688.438 230.312ZM489.062 182.812C489.062 219.062 519.062 248.438 555.312 248.438C591.875 248.438 620.938 219.375 620.938 182.812C620.938 146.25 591.875 116.875 555.312 116.875C519.062 116.875 489.062 146.562 489.062 182.812Z" fill="white" fill-opacity="0.85"/>
 </g>
</svg>
